<mxfile host="Electron" agent="Mozilla/5.0 (Windows NT 10.0; Win64; x64) AppleWebKit/537.36 (KHTML, like Gecko) draw.io/24.7.17 Chrome/128.0.6613.36 Electron/32.0.1 Safari/537.36" version="24.7.17">
  <diagram name="Страница — 1" id="UQYK7kWtaKlrHVtuBoza">
    <mxGraphModel dx="460" dy="871" grid="0" gridSize="10" guides="1" tooltips="1" connect="1" arrows="1" fold="1" page="1" pageScale="1" pageWidth="827" pageHeight="1169" math="0" shadow="0">
      <root>
        <mxCell id="0" />
        <mxCell id="1" parent="0" />
        <mxCell id="oeVXV9QoLbI6pgItiiD--27" style="edgeStyle=none;shape=connector;rounded=0;orthogonalLoop=1;jettySize=auto;html=1;entryX=0.25;entryY=0;entryDx=0;entryDy=0;strokeColor=default;align=center;verticalAlign=middle;fontFamily=Helvetica;fontSize=11;fontColor=default;labelBackgroundColor=default;endArrow=none;endFill=0;" edge="1" parent="1" source="oeVXV9QoLbI6pgItiiD--1" target="oeVXV9QoLbI6pgItiiD--9">
          <mxGeometry relative="1" as="geometry" />
        </mxCell>
        <mxCell id="oeVXV9QoLbI6pgItiiD--28" style="edgeStyle=none;shape=connector;rounded=0;orthogonalLoop=1;jettySize=auto;html=1;entryX=0.25;entryY=0;entryDx=0;entryDy=0;strokeColor=default;align=center;verticalAlign=middle;fontFamily=Helvetica;fontSize=11;fontColor=default;labelBackgroundColor=default;endArrow=none;endFill=0;exitX=0.5;exitY=1;exitDx=0;exitDy=0;" edge="1" parent="1" source="oeVXV9QoLbI6pgItiiD--1" target="oeVXV9QoLbI6pgItiiD--12">
          <mxGeometry relative="1" as="geometry">
            <mxPoint x="85" y="140" as="sourcePoint" />
          </mxGeometry>
        </mxCell>
        <mxCell id="oeVXV9QoLbI6pgItiiD--29" style="edgeStyle=none;shape=connector;rounded=0;orthogonalLoop=1;jettySize=auto;html=1;entryX=0.189;entryY=0.042;entryDx=0;entryDy=0;strokeColor=default;align=center;verticalAlign=middle;fontFamily=Helvetica;fontSize=11;fontColor=default;labelBackgroundColor=default;endArrow=none;endFill=0;exitX=0.5;exitY=1;exitDx=0;exitDy=0;entryPerimeter=0;" edge="1" parent="1" source="oeVXV9QoLbI6pgItiiD--1" target="oeVXV9QoLbI6pgItiiD--13">
          <mxGeometry relative="1" as="geometry" />
        </mxCell>
        <mxCell id="oeVXV9QoLbI6pgItiiD--30" style="edgeStyle=none;shape=connector;rounded=0;orthogonalLoop=1;jettySize=auto;html=1;entryX=0.25;entryY=0;entryDx=0;entryDy=0;strokeColor=default;align=center;verticalAlign=middle;fontFamily=Helvetica;fontSize=11;fontColor=default;labelBackgroundColor=default;endArrow=none;endFill=0;exitX=0.5;exitY=1;exitDx=0;exitDy=0;" edge="1" parent="1" source="oeVXV9QoLbI6pgItiiD--1" target="oeVXV9QoLbI6pgItiiD--11">
          <mxGeometry relative="1" as="geometry" />
        </mxCell>
        <mxCell id="oeVXV9QoLbI6pgItiiD--1" value="0,4" style="rounded=0;whiteSpace=wrap;html=1;" vertex="1" parent="1">
          <mxGeometry x="60" y="80" width="30" height="20" as="geometry" />
        </mxCell>
        <mxCell id="oeVXV9QoLbI6pgItiiD--31" style="edgeStyle=none;shape=connector;rounded=0;orthogonalLoop=1;jettySize=auto;html=1;entryX=0.5;entryY=0;entryDx=0;entryDy=0;strokeColor=default;align=center;verticalAlign=middle;fontFamily=Helvetica;fontSize=11;fontColor=default;labelBackgroundColor=default;endArrow=none;endFill=0;exitX=0.5;exitY=1;exitDx=0;exitDy=0;" edge="1" parent="1" source="oeVXV9QoLbI6pgItiiD--2" target="oeVXV9QoLbI6pgItiiD--11">
          <mxGeometry relative="1" as="geometry" />
        </mxCell>
        <mxCell id="oeVXV9QoLbI6pgItiiD--32" style="edgeStyle=none;shape=connector;rounded=0;orthogonalLoop=1;jettySize=auto;html=1;entryX=0.5;entryY=0;entryDx=0;entryDy=0;strokeColor=default;align=center;verticalAlign=middle;fontFamily=Helvetica;fontSize=11;fontColor=default;labelBackgroundColor=default;endArrow=none;endFill=0;exitX=0.5;exitY=1;exitDx=0;exitDy=0;" edge="1" parent="1" source="oeVXV9QoLbI6pgItiiD--2" target="oeVXV9QoLbI6pgItiiD--13">
          <mxGeometry relative="1" as="geometry" />
        </mxCell>
        <mxCell id="oeVXV9QoLbI6pgItiiD--2" value="0,2" style="rounded=0;whiteSpace=wrap;html=1;" vertex="1" parent="1">
          <mxGeometry x="160" y="80" width="30" height="20" as="geometry" />
        </mxCell>
        <mxCell id="oeVXV9QoLbI6pgItiiD--33" style="edgeStyle=none;shape=connector;rounded=0;orthogonalLoop=1;jettySize=auto;html=1;entryX=0.75;entryY=0;entryDx=0;entryDy=0;strokeColor=default;align=center;verticalAlign=middle;fontFamily=Helvetica;fontSize=11;fontColor=default;labelBackgroundColor=default;endArrow=none;endFill=0;exitX=0.5;exitY=1;exitDx=0;exitDy=0;" edge="1" parent="1" source="oeVXV9QoLbI6pgItiiD--3" target="oeVXV9QoLbI6pgItiiD--9">
          <mxGeometry relative="1" as="geometry" />
        </mxCell>
        <mxCell id="oeVXV9QoLbI6pgItiiD--34" style="edgeStyle=none;shape=connector;rounded=0;orthogonalLoop=1;jettySize=auto;html=1;entryX=0.75;entryY=0;entryDx=0;entryDy=0;strokeColor=default;align=center;verticalAlign=middle;fontFamily=Helvetica;fontSize=11;fontColor=default;labelBackgroundColor=default;endArrow=none;endFill=0;exitX=0.5;exitY=1;exitDx=0;exitDy=0;" edge="1" parent="1" source="oeVXV9QoLbI6pgItiiD--3" target="oeVXV9QoLbI6pgItiiD--11">
          <mxGeometry relative="1" as="geometry" />
        </mxCell>
        <mxCell id="oeVXV9QoLbI6pgItiiD--35" style="edgeStyle=none;shape=connector;rounded=0;orthogonalLoop=1;jettySize=auto;html=1;entryX=0.689;entryY=0.028;entryDx=0;entryDy=0;strokeColor=default;align=center;verticalAlign=middle;fontFamily=Helvetica;fontSize=11;fontColor=default;labelBackgroundColor=default;endArrow=none;endFill=0;exitX=0.5;exitY=1;exitDx=0;exitDy=0;entryPerimeter=0;" edge="1" parent="1" source="oeVXV9QoLbI6pgItiiD--3" target="oeVXV9QoLbI6pgItiiD--13">
          <mxGeometry relative="1" as="geometry" />
        </mxCell>
        <mxCell id="oeVXV9QoLbI6pgItiiD--3" value="0,3" style="rounded=0;whiteSpace=wrap;html=1;" vertex="1" parent="1">
          <mxGeometry x="250" y="80" width="30" height="20" as="geometry" />
        </mxCell>
        <mxCell id="oeVXV9QoLbI6pgItiiD--36" style="edgeStyle=none;shape=connector;rounded=0;orthogonalLoop=1;jettySize=auto;html=1;entryX=0.5;entryY=0;entryDx=0;entryDy=0;strokeColor=default;align=center;verticalAlign=middle;fontFamily=Helvetica;fontSize=11;fontColor=default;labelBackgroundColor=default;endArrow=none;endFill=0;exitX=0.5;exitY=1;exitDx=0;exitDy=0;" edge="1" parent="1" source="oeVXV9QoLbI6pgItiiD--4" target="oeVXV9QoLbI6pgItiiD--10">
          <mxGeometry relative="1" as="geometry" />
        </mxCell>
        <mxCell id="oeVXV9QoLbI6pgItiiD--37" style="edgeStyle=none;shape=connector;rounded=0;orthogonalLoop=1;jettySize=auto;html=1;entryX=0.75;entryY=0;entryDx=0;entryDy=0;strokeColor=default;align=center;verticalAlign=middle;fontFamily=Helvetica;fontSize=11;fontColor=default;labelBackgroundColor=default;endArrow=none;endFill=0;exitX=0.5;exitY=1;exitDx=0;exitDy=0;" edge="1" parent="1" source="oeVXV9QoLbI6pgItiiD--4" target="oeVXV9QoLbI6pgItiiD--12">
          <mxGeometry relative="1" as="geometry" />
        </mxCell>
        <mxCell id="oeVXV9QoLbI6pgItiiD--38" style="edgeStyle=none;shape=connector;rounded=0;orthogonalLoop=1;jettySize=auto;html=1;entryX=0.837;entryY=-0.014;entryDx=0;entryDy=0;strokeColor=default;align=center;verticalAlign=middle;fontFamily=Helvetica;fontSize=11;fontColor=default;labelBackgroundColor=default;endArrow=none;endFill=0;entryPerimeter=0;" edge="1" parent="1" source="oeVXV9QoLbI6pgItiiD--4" target="oeVXV9QoLbI6pgItiiD--13">
          <mxGeometry relative="1" as="geometry" />
        </mxCell>
        <mxCell id="oeVXV9QoLbI6pgItiiD--4" value="0,1" style="rounded=0;whiteSpace=wrap;html=1;" vertex="1" parent="1">
          <mxGeometry x="330" y="80" width="30" height="20" as="geometry" />
        </mxCell>
        <mxCell id="oeVXV9QoLbI6pgItiiD--5" value="а" style="text;html=1;align=center;verticalAlign=middle;whiteSpace=wrap;rounded=0;" vertex="1" parent="1">
          <mxGeometry x="370" y="115" width="60" height="30" as="geometry" />
        </mxCell>
        <mxCell id="oeVXV9QoLbI6pgItiiD--6" value="b" style="text;html=1;align=center;verticalAlign=middle;whiteSpace=wrap;rounded=0;" vertex="1" parent="1">
          <mxGeometry x="370" y="170" width="60" height="30" as="geometry" />
        </mxCell>
        <mxCell id="oeVXV9QoLbI6pgItiiD--7" value="c" style="text;html=1;align=center;verticalAlign=middle;whiteSpace=wrap;rounded=0;" vertex="1" parent="1">
          <mxGeometry x="370" y="290" width="60" height="30" as="geometry" />
        </mxCell>
        <mxCell id="oeVXV9QoLbI6pgItiiD--8" value="d" style="text;html=1;align=center;verticalAlign=middle;whiteSpace=wrap;rounded=0;" vertex="1" parent="1">
          <mxGeometry x="370" y="388" width="60" height="30" as="geometry" />
        </mxCell>
        <mxCell id="oeVXV9QoLbI6pgItiiD--39" style="edgeStyle=none;shape=connector;rounded=0;orthogonalLoop=1;jettySize=auto;html=1;entryX=0.25;entryY=0;entryDx=0;entryDy=0;strokeColor=default;align=center;verticalAlign=middle;fontFamily=Helvetica;fontSize=11;fontColor=default;labelBackgroundColor=default;endArrow=none;endFill=0;exitX=0.5;exitY=1;exitDx=0;exitDy=0;" edge="1" parent="1" source="oeVXV9QoLbI6pgItiiD--9" target="oeVXV9QoLbI6pgItiiD--18">
          <mxGeometry relative="1" as="geometry" />
        </mxCell>
        <mxCell id="oeVXV9QoLbI6pgItiiD--40" style="edgeStyle=none;shape=connector;rounded=0;orthogonalLoop=1;jettySize=auto;html=1;entryX=0.5;entryY=0;entryDx=0;entryDy=0;strokeColor=default;align=center;verticalAlign=middle;fontFamily=Helvetica;fontSize=11;fontColor=default;labelBackgroundColor=default;endArrow=none;endFill=0;exitX=0.5;exitY=1;exitDx=0;exitDy=0;" edge="1" parent="1" source="oeVXV9QoLbI6pgItiiD--9" target="oeVXV9QoLbI6pgItiiD--20">
          <mxGeometry relative="1" as="geometry" />
        </mxCell>
        <mxCell id="oeVXV9QoLbI6pgItiiD--9" value="b1" style="rounded=0;whiteSpace=wrap;html=1;" vertex="1" parent="1">
          <mxGeometry x="70" y="180" width="30" height="20" as="geometry" />
        </mxCell>
        <mxCell id="oeVXV9QoLbI6pgItiiD--41" style="edgeStyle=none;shape=connector;rounded=0;orthogonalLoop=1;jettySize=auto;html=1;entryX=0.25;entryY=0;entryDx=0;entryDy=0;strokeColor=default;align=center;verticalAlign=middle;fontFamily=Helvetica;fontSize=11;fontColor=default;labelBackgroundColor=default;endArrow=none;endFill=0;exitX=0.5;exitY=1;exitDx=0;exitDy=0;" edge="1" parent="1" source="oeVXV9QoLbI6pgItiiD--10" target="oeVXV9QoLbI6pgItiiD--19">
          <mxGeometry relative="1" as="geometry" />
        </mxCell>
        <mxCell id="oeVXV9QoLbI6pgItiiD--42" style="edgeStyle=none;shape=connector;rounded=0;orthogonalLoop=1;jettySize=auto;html=1;entryX=0.25;entryY=0;entryDx=0;entryDy=0;strokeColor=default;align=center;verticalAlign=middle;fontFamily=Helvetica;fontSize=11;fontColor=default;labelBackgroundColor=default;endArrow=none;endFill=0;exitX=0.5;exitY=1;exitDx=0;exitDy=0;" edge="1" parent="1" source="oeVXV9QoLbI6pgItiiD--10" target="oeVXV9QoLbI6pgItiiD--21">
          <mxGeometry relative="1" as="geometry" />
        </mxCell>
        <mxCell id="oeVXV9QoLbI6pgItiiD--10" value="b2" style="rounded=0;whiteSpace=wrap;html=1;" vertex="1" parent="1">
          <mxGeometry x="140" y="180" width="30" height="20" as="geometry" />
        </mxCell>
        <mxCell id="oeVXV9QoLbI6pgItiiD--43" style="edgeStyle=none;shape=connector;rounded=0;orthogonalLoop=1;jettySize=auto;html=1;entryX=0.5;entryY=0;entryDx=0;entryDy=0;strokeColor=default;align=center;verticalAlign=middle;fontFamily=Helvetica;fontSize=11;fontColor=default;labelBackgroundColor=default;endArrow=none;endFill=0;exitX=0.5;exitY=1;exitDx=0;exitDy=0;" edge="1" parent="1" source="oeVXV9QoLbI6pgItiiD--11" target="oeVXV9QoLbI6pgItiiD--18">
          <mxGeometry relative="1" as="geometry" />
        </mxCell>
        <mxCell id="oeVXV9QoLbI6pgItiiD--44" style="edgeStyle=none;shape=connector;rounded=0;orthogonalLoop=1;jettySize=auto;html=1;entryX=0.5;entryY=0;entryDx=0;entryDy=0;strokeColor=default;align=center;verticalAlign=middle;fontFamily=Helvetica;fontSize=11;fontColor=default;labelBackgroundColor=default;endArrow=none;endFill=0;exitX=0.5;exitY=1;exitDx=0;exitDy=0;" edge="1" parent="1" source="oeVXV9QoLbI6pgItiiD--11" target="oeVXV9QoLbI6pgItiiD--19">
          <mxGeometry relative="1" as="geometry" />
        </mxCell>
        <mxCell id="oeVXV9QoLbI6pgItiiD--45" style="edgeStyle=none;shape=connector;rounded=0;orthogonalLoop=1;jettySize=auto;html=1;entryX=0.5;entryY=0;entryDx=0;entryDy=0;strokeColor=default;align=center;verticalAlign=middle;fontFamily=Helvetica;fontSize=11;fontColor=default;labelBackgroundColor=default;endArrow=none;endFill=0;exitX=0.5;exitY=1;exitDx=0;exitDy=0;" edge="1" parent="1" source="oeVXV9QoLbI6pgItiiD--11" target="oeVXV9QoLbI6pgItiiD--21">
          <mxGeometry relative="1" as="geometry" />
        </mxCell>
        <mxCell id="oeVXV9QoLbI6pgItiiD--11" value="b3" style="rounded=0;whiteSpace=wrap;html=1;" vertex="1" parent="1">
          <mxGeometry x="210" y="180" width="30" height="20" as="geometry" />
        </mxCell>
        <mxCell id="oeVXV9QoLbI6pgItiiD--46" style="edgeStyle=none;shape=connector;rounded=0;orthogonalLoop=1;jettySize=auto;html=1;entryX=0.75;entryY=0;entryDx=0;entryDy=0;strokeColor=default;align=center;verticalAlign=middle;fontFamily=Helvetica;fontSize=11;fontColor=default;labelBackgroundColor=default;endArrow=none;endFill=0;exitX=0.5;exitY=1;exitDx=0;exitDy=0;" edge="1" parent="1" source="oeVXV9QoLbI6pgItiiD--12" target="oeVXV9QoLbI6pgItiiD--19">
          <mxGeometry relative="1" as="geometry" />
        </mxCell>
        <mxCell id="oeVXV9QoLbI6pgItiiD--47" style="edgeStyle=none;shape=connector;rounded=0;orthogonalLoop=1;jettySize=auto;html=1;entryX=0.75;entryY=0;entryDx=0;entryDy=0;strokeColor=default;align=center;verticalAlign=middle;fontFamily=Helvetica;fontSize=11;fontColor=default;labelBackgroundColor=default;endArrow=none;endFill=0;" edge="1" parent="1" source="oeVXV9QoLbI6pgItiiD--12" target="oeVXV9QoLbI6pgItiiD--20">
          <mxGeometry relative="1" as="geometry" />
        </mxCell>
        <mxCell id="oeVXV9QoLbI6pgItiiD--12" value="b4" style="rounded=0;whiteSpace=wrap;html=1;" vertex="1" parent="1">
          <mxGeometry x="280" y="180" width="30" height="20" as="geometry" />
        </mxCell>
        <mxCell id="oeVXV9QoLbI6pgItiiD--48" style="edgeStyle=none;shape=connector;rounded=0;orthogonalLoop=1;jettySize=auto;html=1;entryX=0.75;entryY=0;entryDx=0;entryDy=0;strokeColor=default;align=center;verticalAlign=middle;fontFamily=Helvetica;fontSize=11;fontColor=default;labelBackgroundColor=default;endArrow=none;endFill=0;" edge="1" parent="1" source="oeVXV9QoLbI6pgItiiD--13" target="oeVXV9QoLbI6pgItiiD--21">
          <mxGeometry relative="1" as="geometry" />
        </mxCell>
        <mxCell id="oeVXV9QoLbI6pgItiiD--49" style="edgeStyle=none;shape=connector;rounded=0;orthogonalLoop=1;jettySize=auto;html=1;entryX=1;entryY=0;entryDx=0;entryDy=0;strokeColor=default;align=center;verticalAlign=middle;fontFamily=Helvetica;fontSize=11;fontColor=default;labelBackgroundColor=default;endArrow=none;endFill=0;exitX=0.5;exitY=1;exitDx=0;exitDy=0;" edge="1" parent="1" source="oeVXV9QoLbI6pgItiiD--13" target="oeVXV9QoLbI6pgItiiD--18">
          <mxGeometry relative="1" as="geometry" />
        </mxCell>
        <mxCell id="oeVXV9QoLbI6pgItiiD--13" value="b5" style="rounded=0;whiteSpace=wrap;html=1;" vertex="1" parent="1">
          <mxGeometry x="340" y="180" width="30" height="20" as="geometry" />
        </mxCell>
        <mxCell id="oeVXV9QoLbI6pgItiiD--50" style="edgeStyle=none;shape=connector;rounded=0;orthogonalLoop=1;jettySize=auto;html=1;entryX=0.25;entryY=0;entryDx=0;entryDy=0;strokeColor=default;align=center;verticalAlign=middle;fontFamily=Helvetica;fontSize=11;fontColor=default;labelBackgroundColor=default;endArrow=none;endFill=0;exitX=0.5;exitY=1;exitDx=0;exitDy=0;" edge="1" parent="1" source="oeVXV9QoLbI6pgItiiD--18" target="oeVXV9QoLbI6pgItiiD--23">
          <mxGeometry relative="1" as="geometry" />
        </mxCell>
        <mxCell id="oeVXV9QoLbI6pgItiiD--51" style="edgeStyle=none;shape=connector;rounded=0;orthogonalLoop=1;jettySize=auto;html=1;entryX=0.5;entryY=0;entryDx=0;entryDy=0;strokeColor=default;align=center;verticalAlign=middle;fontFamily=Helvetica;fontSize=11;fontColor=default;labelBackgroundColor=default;endArrow=none;endFill=0;exitX=0.5;exitY=1;exitDx=0;exitDy=0;" edge="1" parent="1" source="oeVXV9QoLbI6pgItiiD--18" target="oeVXV9QoLbI6pgItiiD--24">
          <mxGeometry relative="1" as="geometry" />
        </mxCell>
        <mxCell id="oeVXV9QoLbI6pgItiiD--18" value="c1" style="rounded=0;whiteSpace=wrap;html=1;" vertex="1" parent="1">
          <mxGeometry x="80" y="295" width="30" height="20" as="geometry" />
        </mxCell>
        <mxCell id="oeVXV9QoLbI6pgItiiD--52" style="edgeStyle=none;shape=connector;rounded=0;orthogonalLoop=1;jettySize=auto;html=1;entryX=0.5;entryY=0;entryDx=0;entryDy=0;strokeColor=default;align=center;verticalAlign=middle;fontFamily=Helvetica;fontSize=11;fontColor=default;labelBackgroundColor=default;endArrow=none;endFill=0;exitX=0.5;exitY=1;exitDx=0;exitDy=0;" edge="1" parent="1" source="oeVXV9QoLbI6pgItiiD--19" target="oeVXV9QoLbI6pgItiiD--23">
          <mxGeometry relative="1" as="geometry" />
        </mxCell>
        <mxCell id="oeVXV9QoLbI6pgItiiD--53" style="edgeStyle=none;shape=connector;rounded=0;orthogonalLoop=1;jettySize=auto;html=1;entryX=0.25;entryY=0;entryDx=0;entryDy=0;strokeColor=default;align=center;verticalAlign=middle;fontFamily=Helvetica;fontSize=11;fontColor=default;labelBackgroundColor=default;endArrow=none;endFill=0;exitX=0.5;exitY=1;exitDx=0;exitDy=0;" edge="1" parent="1" source="oeVXV9QoLbI6pgItiiD--19" target="oeVXV9QoLbI6pgItiiD--25">
          <mxGeometry relative="1" as="geometry" />
        </mxCell>
        <mxCell id="oeVXV9QoLbI6pgItiiD--19" value="c2" style="rounded=0;whiteSpace=wrap;html=1;" vertex="1" parent="1">
          <mxGeometry x="170" y="295" width="30" height="20" as="geometry" />
        </mxCell>
        <mxCell id="oeVXV9QoLbI6pgItiiD--54" style="edgeStyle=none;shape=connector;rounded=0;orthogonalLoop=1;jettySize=auto;html=1;entryX=0.667;entryY=0;entryDx=0;entryDy=0;strokeColor=default;align=center;verticalAlign=middle;fontFamily=Helvetica;fontSize=11;fontColor=default;labelBackgroundColor=default;endArrow=none;endFill=0;exitX=0.5;exitY=1;exitDx=0;exitDy=0;entryPerimeter=0;" edge="1" parent="1" source="oeVXV9QoLbI6pgItiiD--20" target="oeVXV9QoLbI6pgItiiD--24">
          <mxGeometry relative="1" as="geometry" />
        </mxCell>
        <mxCell id="oeVXV9QoLbI6pgItiiD--55" style="edgeStyle=none;shape=connector;rounded=0;orthogonalLoop=1;jettySize=auto;html=1;entryX=0.5;entryY=0;entryDx=0;entryDy=0;strokeColor=default;align=center;verticalAlign=middle;fontFamily=Helvetica;fontSize=11;fontColor=default;labelBackgroundColor=default;endArrow=none;endFill=0;exitX=0.5;exitY=1;exitDx=0;exitDy=0;" edge="1" parent="1" source="oeVXV9QoLbI6pgItiiD--20" target="oeVXV9QoLbI6pgItiiD--25">
          <mxGeometry relative="1" as="geometry" />
        </mxCell>
        <mxCell id="oeVXV9QoLbI6pgItiiD--20" value="c3" style="rounded=0;whiteSpace=wrap;html=1;" vertex="1" parent="1">
          <mxGeometry x="260" y="295" width="30" height="20" as="geometry" />
        </mxCell>
        <mxCell id="oeVXV9QoLbI6pgItiiD--57" style="edgeStyle=none;shape=connector;rounded=0;orthogonalLoop=1;jettySize=auto;html=1;entryX=0.75;entryY=0;entryDx=0;entryDy=0;strokeColor=default;align=center;verticalAlign=middle;fontFamily=Helvetica;fontSize=11;fontColor=default;labelBackgroundColor=default;endArrow=none;endFill=0;exitX=0.333;exitY=1;exitDx=0;exitDy=0;exitPerimeter=0;" edge="1" parent="1" source="oeVXV9QoLbI6pgItiiD--21" target="oeVXV9QoLbI6pgItiiD--23">
          <mxGeometry relative="1" as="geometry" />
        </mxCell>
        <mxCell id="oeVXV9QoLbI6pgItiiD--58" style="edgeStyle=none;shape=connector;rounded=0;orthogonalLoop=1;jettySize=auto;html=1;entryX=0.75;entryY=0;entryDx=0;entryDy=0;strokeColor=default;align=center;verticalAlign=middle;fontFamily=Helvetica;fontSize=11;fontColor=default;labelBackgroundColor=default;endArrow=none;endFill=0;exitX=0.5;exitY=1;exitDx=0;exitDy=0;" edge="1" parent="1" source="oeVXV9QoLbI6pgItiiD--21" target="oeVXV9QoLbI6pgItiiD--24">
          <mxGeometry relative="1" as="geometry" />
        </mxCell>
        <mxCell id="oeVXV9QoLbI6pgItiiD--59" style="edgeStyle=none;shape=connector;rounded=0;orthogonalLoop=1;jettySize=auto;html=1;entryX=0.75;entryY=0;entryDx=0;entryDy=0;strokeColor=default;align=center;verticalAlign=middle;fontFamily=Helvetica;fontSize=11;fontColor=default;labelBackgroundColor=default;endArrow=none;endFill=0;exitX=0.5;exitY=1;exitDx=0;exitDy=0;" edge="1" parent="1" source="oeVXV9QoLbI6pgItiiD--21" target="oeVXV9QoLbI6pgItiiD--25">
          <mxGeometry relative="1" as="geometry" />
        </mxCell>
        <mxCell id="oeVXV9QoLbI6pgItiiD--21" value="c4" style="rounded=0;whiteSpace=wrap;html=1;" vertex="1" parent="1">
          <mxGeometry x="340" y="295" width="30" height="20" as="geometry" />
        </mxCell>
        <mxCell id="oeVXV9QoLbI6pgItiiD--23" value="d1" style="rounded=0;whiteSpace=wrap;html=1;" vertex="1" parent="1">
          <mxGeometry x="130" y="393" width="30" height="20" as="geometry" />
        </mxCell>
        <mxCell id="oeVXV9QoLbI6pgItiiD--24" value="d2" style="rounded=0;whiteSpace=wrap;html=1;" vertex="1" parent="1">
          <mxGeometry x="220" y="393" width="30" height="20" as="geometry" />
        </mxCell>
        <mxCell id="oeVXV9QoLbI6pgItiiD--25" value="d3" style="rounded=0;whiteSpace=wrap;html=1;" vertex="1" parent="1">
          <mxGeometry x="310" y="393" width="30" height="20" as="geometry" />
        </mxCell>
        <mxCell id="oeVXV9QoLbI6pgItiiD--60" value="0,6" style="text;html=1;align=center;verticalAlign=middle;whiteSpace=wrap;rounded=0;fontFamily=Helvetica;fontSize=11;fontColor=default;labelBackgroundColor=default;" vertex="1" parent="1">
          <mxGeometry x="40" y="112.5" width="30" height="15" as="geometry" />
        </mxCell>
        <mxCell id="oeVXV9QoLbI6pgItiiD--61" value="0,2" style="text;html=1;align=center;verticalAlign=middle;whiteSpace=wrap;rounded=0;fontFamily=Helvetica;fontSize=11;fontColor=default;labelBackgroundColor=default;" vertex="1" parent="1">
          <mxGeometry x="80" y="120" width="30" height="10" as="geometry" />
        </mxCell>
        <mxCell id="oeVXV9QoLbI6pgItiiD--62" value="0,9" style="text;html=1;align=center;verticalAlign=middle;whiteSpace=wrap;rounded=0;fontFamily=Helvetica;fontSize=11;fontColor=default;labelBackgroundColor=default;" vertex="1" parent="1">
          <mxGeometry x="90" y="90" width="30" height="10" as="geometry" />
        </mxCell>
        <mxCell id="oeVXV9QoLbI6pgItiiD--64" value="0,2" style="text;html=1;align=center;verticalAlign=middle;whiteSpace=wrap;rounded=0;fontFamily=Helvetica;fontSize=11;fontColor=default;labelBackgroundColor=default;" vertex="1" parent="1">
          <mxGeometry x="110" y="100" width="30" height="10" as="geometry" />
        </mxCell>
        <mxCell id="oeVXV9QoLbI6pgItiiD--66" value="0,7" style="text;html=1;align=center;verticalAlign=middle;whiteSpace=wrap;rounded=0;fontFamily=Helvetica;fontSize=11;fontColor=default;labelBackgroundColor=default;" vertex="1" parent="1">
          <mxGeometry x="150" y="105" width="30" height="10" as="geometry" />
        </mxCell>
        <mxCell id="oeVXV9QoLbI6pgItiiD--68" value="0,4" style="text;html=1;align=center;verticalAlign=middle;whiteSpace=wrap;rounded=0;fontFamily=Helvetica;fontSize=11;fontColor=default;labelBackgroundColor=default;" vertex="1" parent="1">
          <mxGeometry x="190" y="95" width="30" height="10" as="geometry" />
        </mxCell>
        <mxCell id="oeVXV9QoLbI6pgItiiD--69" value="0,4" style="text;html=1;align=center;verticalAlign=middle;whiteSpace=wrap;rounded=0;fontFamily=Helvetica;fontSize=11;fontColor=default;labelBackgroundColor=default;" vertex="1" parent="1">
          <mxGeometry x="220" y="95" width="30" height="10" as="geometry" />
        </mxCell>
        <mxCell id="oeVXV9QoLbI6pgItiiD--70" value="0,1" style="text;html=1;align=center;verticalAlign=middle;whiteSpace=wrap;rounded=0;fontFamily=Helvetica;fontSize=11;fontColor=default;labelBackgroundColor=default;fillColor=none;" vertex="1" parent="1">
          <mxGeometry x="230" y="115" width="30" height="10" as="geometry" />
        </mxCell>
        <mxCell id="oeVXV9QoLbI6pgItiiD--71" value="&lt;font style=&quot;font-size: 10px;&quot;&gt;1,0&lt;/font&gt;" style="text;html=1;align=center;verticalAlign=middle;whiteSpace=wrap;rounded=0;fontFamily=Helvetica;fontSize=11;fontColor=default;labelBackgroundColor=default;fillColor=none;" vertex="1" parent="1">
          <mxGeometry x="300" y="95" width="30" height="10" as="geometry" />
        </mxCell>
        <mxCell id="oeVXV9QoLbI6pgItiiD--73" value="&lt;font style=&quot;font-size: 9px;&quot;&gt;0,1&lt;/font&gt;" style="text;html=1;align=center;verticalAlign=middle;whiteSpace=wrap;rounded=0;fontFamily=Helvetica;fontSize=11;fontColor=default;labelBackgroundColor=default;fillColor=none;" vertex="1" parent="1">
          <mxGeometry x="310" y="115" width="30" height="10" as="geometry" />
        </mxCell>
        <mxCell id="oeVXV9QoLbI6pgItiiD--74" value="0,2" style="text;html=1;align=center;verticalAlign=middle;whiteSpace=wrap;rounded=0;fontFamily=Helvetica;fontSize=11;fontColor=default;labelBackgroundColor=default;" vertex="1" parent="1">
          <mxGeometry x="350" y="110" width="30" height="10" as="geometry" />
        </mxCell>
        <mxCell id="oeVXV9QoLbI6pgItiiD--75" value="0,6" style="text;html=1;align=center;verticalAlign=middle;whiteSpace=wrap;rounded=0;fontFamily=Helvetica;fontSize=11;fontColor=default;labelBackgroundColor=default;" vertex="1" parent="1">
          <mxGeometry x="100" y="220" width="30" height="15" as="geometry" />
        </mxCell>
        <mxCell id="oeVXV9QoLbI6pgItiiD--76" value="0,5" style="text;html=1;align=center;verticalAlign=middle;whiteSpace=wrap;rounded=0;fontFamily=Helvetica;fontSize=11;fontColor=default;labelBackgroundColor=default;" vertex="1" parent="1">
          <mxGeometry x="60" y="220" width="30" height="15" as="geometry" />
        </mxCell>
        <mxCell id="oeVXV9QoLbI6pgItiiD--78" value="0,5" style="text;html=1;align=center;verticalAlign=middle;whiteSpace=wrap;rounded=0;fontFamily=Helvetica;fontSize=11;fontColor=default;labelBackgroundColor=default;" vertex="1" parent="1">
          <mxGeometry x="130" y="205" width="30" height="15" as="geometry" />
        </mxCell>
        <mxCell id="oeVXV9QoLbI6pgItiiD--80" value="&lt;font style=&quot;font-size: 9px;&quot;&gt;0,1&lt;/font&gt;" style="text;html=1;align=center;verticalAlign=middle;whiteSpace=wrap;rounded=0;fontFamily=Helvetica;fontSize=11;fontColor=default;labelBackgroundColor=default;fillColor=none;" vertex="1" parent="1">
          <mxGeometry x="196" y="201.25" width="10" height="1.75" as="geometry" />
        </mxCell>
        <mxCell id="oeVXV9QoLbI6pgItiiD--82" value="&lt;font style=&quot;font-size: 9px;&quot;&gt;0,3&lt;/font&gt;" style="text;html=1;align=center;verticalAlign=middle;whiteSpace=wrap;rounded=0;fontFamily=Helvetica;fontSize=11;fontColor=default;labelBackgroundColor=default;" vertex="1" parent="1">
          <mxGeometry x="220" y="220" width="20" height="10" as="geometry" />
        </mxCell>
        <mxCell id="oeVXV9QoLbI6pgItiiD--85" value="&lt;font style=&quot;font-size: 9px;&quot;&gt;0,3&lt;/font&gt;" style="text;html=1;align=center;verticalAlign=middle;whiteSpace=wrap;rounded=0;fontFamily=Helvetica;fontSize=11;fontColor=default;labelBackgroundColor=default;" vertex="1" parent="1">
          <mxGeometry x="240" y="197.5" width="20" height="10" as="geometry" />
        </mxCell>
        <mxCell id="oeVXV9QoLbI6pgItiiD--89" value="&lt;font style=&quot;font-size: 10px;&quot;&gt;0,4&lt;/font&gt;" style="text;html=1;align=center;verticalAlign=middle;resizable=0;points=[];autosize=1;strokeColor=none;fillColor=none;fontFamily=Helvetica;fontSize=11;fontColor=default;labelBackgroundColor=default;" vertex="1" parent="1">
          <mxGeometry x="164" y="186" width="32" height="25" as="geometry" />
        </mxCell>
        <mxCell id="oeVXV9QoLbI6pgItiiD--90" value="&lt;font style=&quot;font-size: 10px;&quot;&gt;0,2&lt;/font&gt;" style="text;html=1;align=center;verticalAlign=middle;whiteSpace=wrap;rounded=0;fontFamily=Helvetica;fontSize=11;fontColor=default;labelBackgroundColor=default;" vertex="1" parent="1">
          <mxGeometry x="255" y="200" width="30" height="10" as="geometry" />
        </mxCell>
        <mxCell id="oeVXV9QoLbI6pgItiiD--91" value="&lt;font style=&quot;font-size: 10px;&quot;&gt;0,4&lt;/font&gt;" style="text;html=1;align=center;verticalAlign=middle;resizable=0;points=[];autosize=1;strokeColor=none;fillColor=none;fontFamily=Helvetica;fontSize=11;fontColor=default;labelBackgroundColor=default;" vertex="1" parent="1">
          <mxGeometry x="287" y="195" width="32" height="25" as="geometry" />
        </mxCell>
        <mxCell id="oeVXV9QoLbI6pgItiiD--92" value="&lt;font style=&quot;font-size: 10px;&quot;&gt;0,4&lt;/font&gt;" style="text;html=1;align=center;verticalAlign=middle;resizable=0;points=[];autosize=1;strokeColor=none;fillColor=none;fontFamily=Helvetica;fontSize=11;fontColor=default;labelBackgroundColor=default;" vertex="1" parent="1">
          <mxGeometry x="309" y="189.62" width="32" height="25" as="geometry" />
        </mxCell>
        <mxCell id="oeVXV9QoLbI6pgItiiD--93" value="&lt;font style=&quot;font-size: 11px;&quot;&gt;0,3&lt;/font&gt;" style="text;html=1;align=center;verticalAlign=middle;whiteSpace=wrap;rounded=0;fontFamily=Helvetica;fontSize=11;fontColor=default;labelBackgroundColor=default;" vertex="1" parent="1">
          <mxGeometry x="362" y="207.5" width="20" height="10" as="geometry" />
        </mxCell>
        <mxCell id="oeVXV9QoLbI6pgItiiD--94" value="0,6" style="text;html=1;align=center;verticalAlign=middle;whiteSpace=wrap;rounded=0;fontFamily=Helvetica;fontSize=11;fontColor=default;labelBackgroundColor=default;" vertex="1" parent="1">
          <mxGeometry x="70" y="320" width="30" height="15" as="geometry" />
        </mxCell>
        <mxCell id="oeVXV9QoLbI6pgItiiD--95" value="&lt;font style=&quot;font-size: 11px;&quot;&gt;0,3&lt;/font&gt;" style="text;html=1;align=center;verticalAlign=middle;whiteSpace=wrap;rounded=0;fontFamily=Helvetica;fontSize=11;fontColor=default;labelBackgroundColor=default;" vertex="1" parent="1">
          <mxGeometry x="115" y="312.5" width="20" height="10" as="geometry" />
        </mxCell>
        <mxCell id="oeVXV9QoLbI6pgItiiD--96" value="&lt;font style=&quot;font-size: 12px;&quot;&gt;0,2&lt;/font&gt;" style="text;html=1;align=center;verticalAlign=middle;whiteSpace=wrap;rounded=0;fontFamily=Helvetica;fontSize=11;fontColor=default;labelBackgroundColor=default;" vertex="1" parent="1">
          <mxGeometry x="147" y="322.5" width="30" height="10" as="geometry" />
        </mxCell>
        <mxCell id="oeVXV9QoLbI6pgItiiD--97" value="0,5" style="text;html=1;align=center;verticalAlign=middle;whiteSpace=wrap;rounded=0;fontFamily=Helvetica;fontSize=11;fontColor=default;labelBackgroundColor=default;" vertex="1" parent="1">
          <mxGeometry x="203" y="310" width="30" height="15" as="geometry" />
        </mxCell>
        <mxCell id="oeVXV9QoLbI6pgItiiD--98" value="&lt;font style=&quot;font-size: 12px;&quot;&gt;0,2&lt;/font&gt;" style="text;html=1;align=center;verticalAlign=middle;whiteSpace=wrap;rounded=0;fontFamily=Helvetica;fontSize=11;fontColor=default;labelBackgroundColor=default;" vertex="1" parent="1">
          <mxGeometry x="235" y="325" width="30" height="10" as="geometry" />
        </mxCell>
        <mxCell id="oeVXV9QoLbI6pgItiiD--99" value="&lt;font style=&quot;font-size: 11px;&quot;&gt;0,3&lt;/font&gt;" style="text;html=1;align=center;verticalAlign=middle;whiteSpace=wrap;rounded=0;fontFamily=Helvetica;fontSize=11;fontColor=default;labelBackgroundColor=default;" vertex="1" parent="1">
          <mxGeometry x="285" y="318" width="20" height="10" as="geometry" />
        </mxCell>
        <mxCell id="oeVXV9QoLbI6pgItiiD--101" value="&lt;font style=&quot;font-size: 12px;&quot;&gt;0,2&lt;/font&gt;" style="text;html=1;align=center;verticalAlign=middle;whiteSpace=wrap;rounded=0;fontFamily=Helvetica;fontSize=11;fontColor=default;labelBackgroundColor=default;" vertex="1" parent="1">
          <mxGeometry x="310" y="308" width="30" height="10" as="geometry" />
        </mxCell>
        <mxCell id="oeVXV9QoLbI6pgItiiD--104" value="0,5" style="text;html=1;align=center;verticalAlign=middle;whiteSpace=wrap;rounded=0;fontFamily=Helvetica;fontSize=11;fontColor=default;labelBackgroundColor=default;" vertex="1" parent="1">
          <mxGeometry x="311" y="339" width="30" height="15" as="geometry" />
        </mxCell>
        <mxCell id="oeVXV9QoLbI6pgItiiD--105" value="&lt;font style=&quot;font-size: 12px;&quot;&gt;0,2&lt;/font&gt;" style="text;html=1;align=center;verticalAlign=middle;whiteSpace=wrap;rounded=0;fontFamily=Helvetica;fontSize=11;fontColor=default;labelBackgroundColor=default;" vertex="1" parent="1">
          <mxGeometry x="352" y="322.5" width="30" height="10" as="geometry" />
        </mxCell>
      </root>
    </mxGraphModel>
  </diagram>
</mxfile>
